<svg width="34" height="34" viewBox="0 0 34 34" fill="none" xmlns="http://www.w3.org/2000/svg">
<path d="M25.2285 25.5344H17.7784M8 26L13.1679 24.0124C13.4984 23.8852 13.6637 23.8217 13.8183 23.7387C13.9557 23.6649 14.0866 23.5798 14.2097 23.4843C14.3484 23.3767 14.4736 23.2515 14.724 23.001L25.2285 12.4966C26.2572 11.4679 26.2572 9.80014 25.2285 8.77149C24.1999 7.74284 22.5321 7.74284 21.5034 8.77149L10.999 19.276C10.7485 19.5264 10.6233 19.6516 10.5157 19.7902C10.4202 19.9134 10.3351 20.0443 10.2613 20.1817C10.1783 20.3363 10.1148 20.5016 9.98764 20.8321L8 26ZM8 26L9.91667 21.0167C10.0538 20.6601 10.1224 20.4818 10.24 20.4002C10.3428 20.3288 10.47 20.3018 10.5929 20.3253C10.7336 20.3521 10.8687 20.4872 11.1388 20.7574L13.2427 22.8612C13.5128 23.1314 13.6479 23.2664 13.6748 23.4071C13.6982 23.53 13.6712 23.6572 13.5999 23.76C13.5182 23.8776 13.3399 23.9462 12.9833 24.0834L8 26Z" stroke="#0A0A0A" stroke-width="2" stroke-linecap="round" stroke-linejoin="round"/>
</svg>
