<svg width="40" height="41" viewBox="0 0 40 41" fill="none" xmlns="http://www.w3.org/2000/svg">
<rect y="0.5" width="40" height="40" rx="20" fill="black"/>
<path d="M19.808 23.6597C21.76 23.6597 23.04 21.8837 23.04 19.0357C23.04 16.2677 21.76 14.5877 19.808 14.5877C17.856 14.5877 16.592 16.2677 16.592 19.0357C16.592 21.8837 17.856 23.6597 19.808 23.6597ZM23.504 28.0277C21.216 28.0277 19.648 26.7957 18.928 25.1157C16.384 24.6837 14.688 22.4437 14.688 19.0357C14.688 15.2437 16.784 12.9717 19.808 12.9717C22.832 12.9717 24.944 15.2437 24.944 19.0357C24.944 22.3477 23.328 24.5557 20.912 25.0677C21.44 26.0597 22.528 26.5077 23.712 26.5077C24.224 26.5077 24.64 26.4277 24.96 26.3317L25.312 27.7237C24.928 27.8997 24.272 28.0277 23.504 28.0277Z" fill="white"/>
</svg>
