<svg width="28" height="28" viewBox="0 0 28 28" fill="none" xmlns="http://www.w3.org/2000/svg">
<path d="M21.3527 15.6583V15.6583C21.3527 15.2109 20.9897 14.8486 20.5424 14.8486C20.0952 14.8486 19.7322 15.2109 19.7322 15.6583V20.3761H19.7321L19.7323 20.384C19.7353 20.4789 19.7349 20.561 19.7335 20.63C19.7018 20.6294 19.6667 20.6283 19.6276 20.6262L19.6276 20.6258L19.6143 20.6258L8.62367 20.6251C8.61172 20.5532 8.60434 20.4642 8.60434 20.3566V15.6583C8.60434 15.2109 8.24134 14.8486 7.79411 14.8486C7.34687 14.8486 6.98387 15.2109 6.98387 15.6583V20.3566C6.98387 20.7582 7.04493 21.1224 7.18591 21.4405C7.42218 21.9736 7.92715 22.2161 8.50303 22.2434L8.50302 22.2437H8.51486L19.5778 22.2444C20.1036 22.2723 20.5794 22.2031 20.9244 21.8851C21.3032 21.5359 21.3733 21.0054 21.3524 20.3538L21.3527 15.6583ZM15.0966 6.05587L15.0967 6.05571L15.089 6.04896C14.8763 5.86418 14.6317 5.75 14.3474 5.75C14.1015 5.75 13.8854 5.83427 13.6874 5.95785L13.6793 5.96292L13.6716 5.9686L13.6026 6.01941L13.5949 6.02509L13.5876 6.03134L6.03114 12.5423L6.19262 12.7297L6.03114 12.5423C5.6922 12.8344 5.65438 13.3458 5.94679 13.6844C6.23907 14.0229 6.75056 14.0606 7.08935 13.7687L14.3138 7.54376L20.8834 13.7441L20.8835 13.7442C21.2087 14.0511 21.7214 14.0365 22.0287 13.7116C22.3361 13.3865 22.3215 12.8739 21.9961 12.5669L15.0966 6.05587Z" fill="#555555" stroke="#555555" stroke-width="0.5"/>
</svg>
