<svg width="16" height="16" viewBox="0 0 16 16" fill="none" xmlns="http://www.w3.org/2000/svg">
<path d="M4.53861 0C4.84789 0 5.09861 0.250595 5.09861 0.559719L5.0984 1.6072H11.112L11.1121 0.566513C11.1121 0.257388 11.3628 0.00679352 11.6721 0.00679352C11.9814 0.00679352 12.2321 0.257388 12.2321 0.566513L12.232 1.6072L14.4 1.60721C15.2837 1.60721 16 2.3232 16 3.20641V14.4008C16 15.284 15.2837 16 14.4 16H1.6C0.716344 16 0 15.284 0 14.4008V3.20641C0 2.3232 0.716344 1.60721 1.6 1.60721L3.9784 1.6072L3.97861 0.559719C3.97861 0.250595 4.22933 0 4.53861 0ZM1.12 6.1936V14.4008C1.12 14.6658 1.3349 14.8806 1.6 14.8806H14.4C14.6651 14.8806 14.88 14.6658 14.88 14.4008V6.2048L1.12 6.1936ZM5.33333 11.6949V13.0278H4V11.6949H5.33333ZM8.66667 11.6949V13.0278H7.33333V11.6949H8.66667ZM12 11.6949V13.0278H10.6667V11.6949H12ZM5.33333 8.51341V9.84631H4V8.51341H5.33333ZM8.66667 8.51341V9.84631H7.33333V8.51341H8.66667ZM12 8.51341V9.84631H10.6667V8.51341H12ZM3.9784 2.7264L1.6 2.72665C1.3349 2.72665 1.12 2.94145 1.12 3.20641V5.0744L14.88 5.0856V3.20641C14.88 2.94145 14.6651 2.72665 14.4 2.72665L12.232 2.7264L12.2321 3.46958C12.2321 3.7787 11.9814 4.0293 11.6721 4.0293C11.3628 4.0293 11.1121 3.7787 11.1121 3.46958L11.112 2.7264H5.0984L5.09861 3.46279C5.09861 3.77191 4.84789 4.02251 4.53861 4.02251C4.22933 4.02251 3.97861 3.77191 3.97861 3.46279L3.9784 2.7264Z" fill="#D9D9D9"/>
</svg>
