<svg width="23" height="23" viewBox="0 0 23 23" fill="none" xmlns="http://www.w3.org/2000/svg">
<path d="M22.2566 11.3799C22.2566 17.3875 17.3873 22.2598 11.3767 22.2598C5.36937 22.2598 0.5 17.3876 0.5 11.3799C0.5 5.37217 5.36937 0.5 11.3767 0.5C17.3873 0.5 22.2566 5.37226 22.2566 11.3799Z" fill="#7162FE" stroke="#EAE8FF"/>
<path d="M11.667 19.5333C15.1636 19.5333 17.9981 16.6988 17.9981 13.2022C17.9981 9.70563 15.1636 6.87109 11.667 6.87109C8.17047 6.87109 5.33594 9.70563 5.33594 13.2022C5.33594 16.6988 8.17047 19.5333 11.667 19.5333Z" fill="#FFBC50"/>
<path d="M16.8937 16.7744C15.7541 18.4416 13.8383 19.5343 11.667 19.5343C8.17087 19.5343 5.33594 16.6994 5.33594 13.2032C5.33594 11.0319 6.42861 9.11617 8.09582 7.97656C7.39706 8.99423 6.99141 10.2229 6.99141 11.5478C6.99141 15.0439 9.82632 17.8788 13.3225 17.8788C14.6473 17.8788 15.876 17.4732 16.8937 16.7744Z" fill="#FFB32C"/>
<path d="M11.6661 17.7737C14.1914 17.7737 16.2385 15.7265 16.2385 13.2013C16.2385 10.676 14.1914 8.62891 11.6661 8.62891C9.14088 8.62891 7.09375 10.676 7.09375 13.2013C7.09375 15.7265 9.14088 17.7737 11.6661 17.7737Z" fill="#FFB32C"/>
<path d="M8.09608 13.7546C8.09608 15.2764 8.83868 16.6237 9.98315 17.4557C8.29493 16.7861 7.09766 15.1303 7.09766 13.2026C7.09766 10.6784 9.14305 8.62891 11.6674 8.62891C12.6738 8.62891 13.6032 8.95359 14.358 9.50546C13.8345 9.29858 13.2663 9.18494 12.6698 9.18494C10.1455 9.18494 8.09608 11.2302 8.09608 13.7546Z" fill="#F49F16"/>
<path d="M13.1798 14.3114C13.1798 15.0054 12.713 15.5938 12.0719 15.7684V16.0403C12.0719 16.2675 11.8932 16.4461 11.666 16.4461C11.4428 16.4461 11.2602 16.2675 11.2602 16.0403V15.7684C10.623 15.5938 10.1562 15.0054 10.1562 14.3114C10.1562 14.0882 10.339 13.9056 10.5621 13.9056C10.7853 13.9056 10.9679 14.0882 10.9679 14.3114C10.9679 14.701 11.2804 15.0135 11.666 15.0135C12.0515 15.0135 12.3681 14.701 12.3681 14.3114C12.3681 13.9259 12.0515 13.6093 11.666 13.6093C10.8341 13.6093 10.1562 12.9316 10.1562 12.0956C10.1562 11.4057 10.623 10.8172 11.2602 10.6386V10.3668C11.2602 10.1435 11.4428 9.96094 11.666 9.96094C11.8932 9.96094 12.0719 10.1435 12.0719 10.3668V10.6386C12.713 10.8172 13.1798 11.4057 13.1798 12.0956C13.1798 12.3188 12.9971 12.5014 12.7739 12.5014C12.5466 12.5014 12.3681 12.3188 12.3681 12.0956C12.3681 11.7101 12.0515 11.3935 11.666 11.3935C11.2804 11.3935 10.9679 11.7101 10.9679 12.0956C10.9679 12.4852 11.2804 12.7977 11.666 12.7977C12.502 12.7977 13.1798 13.4794 13.1798 14.3114Z" fill="white"/>
<path d="M4.79688 6.12997L5.74165 9.74041C6.22905 11.603 15.1899 9.25822 14.7025 7.3956L13.7577 3.78516L4.79688 6.12997Z" fill="#24272B"/>
<path d="M5.92188 10.0316C7.20725 11.2475 14.3246 9.37115 14.7066 7.68359C13.3608 9.19846 7.93558 10.6346 5.92188 10.0316Z" fill="#13181E"/>
<path d="M4.79688 6.12997L5.14236 7.45024L9.30922 7.55694C9.52218 7.56254 9.73332 7.53691 9.93721 7.48356C10.1411 7.4302 10.3377 7.34914 10.5187 7.24046L14.1032 5.10542L13.7577 3.78516L4.79688 6.12997Z" fill="black"/>
<path d="M3.18552 6.99201L9.319 7.1476C9.66673 7.15642 10.0098 7.06663 10.3087 6.88862L15.5817 3.74759C15.9626 3.52072 15.8098 2.93696 15.3667 2.92571L9.23317 2.77012C8.88545 2.7613 8.54233 2.85109 8.24349 3.0291L2.97045 6.17013C2.58959 6.397 2.74235 6.98076 3.18552 6.99201Z" fill="#24272B"/>
<path d="M3.18523 6.99287L9.31941 7.14946C9.6664 7.15806 10.0108 7.06793 10.3091 6.89047L15.5824 3.74886C15.963 3.52235 15.8102 2.93842 15.3674 2.9274L14.5349 2.90625L9.35635 5.98926C9.05854 6.16871 8.71412 6.25884 8.36664 6.24824L3.06543 6.11478L2.97027 6.17141C2.58966 6.3979 2.74246 6.98183 3.18523 6.99287Z" fill="#13181E"/>
<path d="M9.43944 4.82906C9.413 4.72774 9.30942 4.66726 9.2081 4.69371L3.12306 6.286C2.96422 6.32731 2.83098 6.42849 2.74841 6.56997C2.66552 6.71166 2.64284 6.87698 2.6843 7.03572L3.04498 8.41436C3.07142 8.51568 3.17501 8.57616 3.27633 8.54972C3.3774 8.52322 3.43813 8.41969 3.41169 8.31837L3.051 6.93973C3.03512 6.8789 3.04377 6.81555 3.07546 6.7614C3.10726 6.7074 3.15823 6.66859 3.2189 6.6528L9.30409 5.06041C9.4045 5.03406 9.46606 4.9312 9.43944 4.82906Z" fill="#E5F5F9"/>
<path d="M3.85622 10.7236C4.02245 10.6799 4.17449 10.6189 4.28134 10.5507C4.47583 10.4294 4.49074 10.3111 4.46945 10.2311C4.46829 10.2249 4.46617 10.2169 4.46325 10.2116L4.00539 9.2833C3.94561 9.16264 3.84403 9.07427 3.72538 9.02972C3.81143 8.91566 3.8465 8.76324 3.80705 8.613C3.73981 8.35427 3.47184 8.19726 3.21407 8.26628C2.95359 8.3345 2.80011 8.60052 2.86736 8.85926C2.9068 9.0095 3.01124 9.12382 3.1404 9.1832C3.06082 9.27993 3.01567 9.40579 3.02297 9.5394L3.07907 10.575C3.08023 10.5812 3.08138 10.5875 3.08254 10.5937C3.14322 10.824 3.52196 10.812 3.85622 10.7236Z" fill="#FC545D"/>
<path d="M3.85585 10.7237C4.02209 10.68 4.17412 10.619 4.28097 10.5508C4.47546 10.4295 4.49037 10.3112 4.46908 10.2312C4.46792 10.225 4.4658 10.217 4.46289 10.2117L4.00502 9.2834C3.94524 9.16274 3.84366 9.07437 3.72502 9.02982C3.81107 8.91576 3.84613 8.76334 3.80669 8.61311C3.75528 8.41213 3.58148 8.27191 3.38573 8.25391C3.39562 8.27596 3.40279 8.29725 3.40918 8.32124C3.4486 8.47149 3.54771 8.87089 3.60751 8.99152L4.06538 9.91982C4.0683 9.9251 4.07042 9.9331 4.07157 9.93934C4.09284 10.0193 4.07792 10.1377 3.88344 10.2589C3.7766 10.3271 3.62455 10.3882 3.45832 10.4319C3.33031 10.4659 3.19552 10.4876 3.07422 10.4881L3.0787 10.5751C3.07986 10.5813 3.08101 10.5876 3.08217 10.5938C3.14286 10.8241 3.5216 10.8121 3.85585 10.7237Z" fill="#F14448"/>
<path d="M8.10891 5.17515C8.1802 5.44759 8.75136 5.53466 9.38627 5.36852C10.0187 5.20302 10.4765 4.84671 10.4052 4.57427C10.3339 4.30183 9.76029 4.21542 9.12784 4.38092C8.49293 4.54706 8.03762 4.90271 8.10891 5.17515Z" fill="#E5F5F9"/>
<path d="M9.3843 5.37092C10.0155 5.20566 10.4744 4.84889 10.4021 4.57689C10.3679 4.4444 10.216 4.35631 9.99884 4.32031C10.0478 4.59147 9.59551 4.93539 8.97677 5.09836C8.65054 5.18456 8.33946 5.20276 8.10593 5.16206C8.10436 5.16752 8.10727 5.17278 8.10745 5.17727C8.178 5.45024 8.74859 5.53638 9.3843 5.37092Z" fill="#D3E6ED"/>
<g opacity="0.3">
<path d="M15.9772 10.1715C15.906 10.0707 15.831 9.97171 15.7544 9.8775C15.6687 9.77225 15.6847 9.61742 15.7897 9.53185C15.8948 9.44596 16.0497 9.46196 16.1354 9.5672C16.2192 9.67021 16.3011 9.77833 16.3787 9.88837C16.4569 9.99922 16.4303 10.1524 16.3195 10.2307C16.2091 10.3086 16.0557 10.2828 15.9772 10.1715Z" fill="white"/>
<path d="M17.1824 13.4484C17.0468 13.4484 16.9367 13.3384 16.9367 13.2028C16.9367 12.393 16.7574 11.6156 16.404 10.8927C16.3443 10.7708 16.3948 10.6236 16.5167 10.564C16.6386 10.5046 16.7858 10.5549 16.8454 10.6767C17.232 11.4675 17.4281 12.3175 17.4281 13.2028C17.4281 13.3384 17.3181 13.4484 17.1824 13.4484Z" fill="white"/>
</g>
<g opacity="0.3">
<path d="M13.8622 7.43248L13.6116 6.54014C13.5871 6.45297 13.638 6.3626 13.725 6.33813C13.8123 6.31382 13.9027 6.36436 13.927 6.45153L14.1777 7.34387C14.2021 7.43104 14.1513 7.52141 14.0643 7.54588C13.9779 7.57003 13.8869 7.52028 13.8622 7.43248Z" fill="white"/>
<path d="M13.4836 6.08366L13.4319 5.89956C13.4075 5.81239 13.4583 5.72202 13.5453 5.69755C13.633 5.67308 13.7229 5.72394 13.7473 5.81095L13.799 5.99505C13.8235 6.08222 13.7726 6.17259 13.6856 6.19706C13.5992 6.22121 13.5083 6.17146 13.4836 6.08366Z" fill="white"/>
</g>
<g opacity="0.3">
<path d="M6.07936 5.1355L7.43425 4.33676C7.52838 4.28127 7.55959 4.16012 7.50415 4.06609C7.44871 3.97205 7.3276 3.9407 7.23348 3.99619L5.87858 4.79493C5.78446 4.85042 5.75325 4.97157 5.80869 5.0656C5.86412 5.15964 5.98524 5.19099 6.07936 5.1355Z" fill="white"/>
</g>
<g opacity="0.3">
<path d="M8.04811 3.97487L8.10348 3.94223C8.19761 3.88674 8.22882 3.76559 8.17338 3.67155C8.11794 3.57752 7.99683 3.54617 7.90271 3.60166L7.84733 3.6343C7.75321 3.68979 7.722 3.81094 7.77743 3.90497C7.83287 3.99901 7.95399 4.03036 8.04811 3.97487Z" fill="white"/>
</g>
</svg>
