<svg width="17" height="16" viewBox="0 0 17 16" fill="none" xmlns="http://www.w3.org/2000/svg">
<path d="M6.32309 9.49877L15.4215 9.49878C15.6284 9.49878 15.7954 9.33032 15.7954 9.12344L15.7954 6.88169C15.7954 6.67629 15.6284 6.50783 15.4215 6.50783L6.32311 6.50781C6.11622 6.50781 5.94923 6.67628 5.94923 6.88168L5.94922 9.12342C5.94922 9.3303 6.1162 9.49877 6.32309 9.49877Z" fill="white"/>
<path d="M15.4215 4.65111L6.3231 4.65113C6.11622 4.65113 5.94923 4.48266 5.94923 4.27578L5.94922 2.03404C5.94922 1.82864 6.1162 1.66017 6.32308 1.66017L15.4215 1.66016C15.6284 1.66016 15.7954 1.82862 15.7954 2.03402L15.7954 4.27577C15.7954 4.48265 15.6284 4.65111 15.4215 4.65111Z" fill="white"/>
<path d="M15.4215 14.2136L6.3231 14.2136C6.11622 14.2136 5.94923 14.0452 5.94923 13.8383L5.94922 11.5965C5.94922 11.3911 6.1162 11.2227 6.32308 11.2227L15.4215 11.2227C15.6284 11.2227 15.7954 11.3911 15.7954 11.5965L15.7954 13.8383C15.7954 14.0451 15.6284 14.2136 15.4215 14.2136Z" fill="white"/>
<path d="M6.374 9.98984L15.4721 9.98986C15.6787 9.98986 15.8461 9.82241 15.8461 9.61585L15.8462 7.37402C15.8462 7.16746 15.6787 7.00001 15.4722 7.00001L6.37402 7C6.16746 7 6.00002 7.16745 6.00001 7.37401L6 9.61584C6 9.82239 6.16744 9.98984 6.374 9.98984Z" fill="white"/>
<path d="M15.4214 4.65L6.32324 4.65001C6.11668 4.65001 5.94923 4.48256 5.94923 4.27601L5.94922 2.03418C5.94922 1.82762 6.11666 1.66017 6.32322 1.66017L15.4214 1.66016C15.6279 1.66016 15.7954 1.8276 15.7954 2.03416L15.7954 4.27599C15.7954 4.48255 15.6279 4.65 15.4214 4.65Z" fill="white"/>
<path d="M1.20703 3.28446C1.20703 4.27103 2.00494 5.06894 2.99151 5.06894C3.97415 5.06894 4.77594 4.27103 4.77594 3.28446C4.77594 2.29789 3.97415 1.5 2.99151 1.5C2.00494 1.5 1.20703 2.29789 1.20703 3.28446Z" fill="white"/>
<path d="M1.20703 3.28446C1.20703 4.27103 2.00494 5.06894 2.99151 5.06894C3.97415 5.06894 4.77594 4.27103 4.77594 3.28446C4.77594 2.29789 3.97415 1.5 2.99151 1.5C2.00494 1.5 1.20703 2.29789 1.20703 3.28446Z" fill="white"/>
<path d="M1.20703 7.9993C1.20703 8.98587 2.00494 9.78378 2.99151 9.78378C3.97415 9.78378 4.77594 8.98587 4.77594 7.9993C4.77594 7.01273 3.97415 6.21484 2.99151 6.21484C2.00494 6.21484 1.20703 7.01273 1.20703 7.9993Z" fill="white"/>
<path d="M1.20703 7.9993C1.20703 8.98587 2.00494 9.78378 2.99151 9.78378C3.97415 9.78378 4.77594 8.98587 4.77594 7.9993C4.77594 7.01273 3.97415 6.21484 2.99151 6.21484C2.00494 6.21484 1.20703 7.01273 1.20703 7.9993Z" fill="white"/>
<path d="M1.20703 12.718C1.20703 13.7046 2.00494 14.5025 2.99151 14.5025C3.97415 14.5025 4.77594 13.7046 4.77594 12.718C4.77594 11.7315 3.97415 10.9336 2.99151 10.9336C2.00494 10.9336 1.20703 11.7315 1.20703 12.718Z" fill="white"/>
<path d="M1.20703 12.718C1.20703 13.7046 2.00494 14.5025 2.99151 14.5025C3.97415 14.5025 4.77594 13.7046 4.77594 12.718C4.77594 11.7315 3.97415 10.9336 2.99151 10.9336C2.00494 10.9336 1.20703 11.7315 1.20703 12.718Z" fill="white"/>
<path d="M15.4214 14.2125L6.32324 14.2125C6.11668 14.2125 5.94923 14.0451 5.94923 13.8385L5.94922 11.5967C5.94922 11.3901 6.11666 11.2227 6.32322 11.2227L15.4214 11.2227C15.6279 11.2227 15.7954 11.3901 15.7954 11.5967L15.7954 13.8385C15.7954 14.0451 15.6279 14.2125 15.4214 14.2125Z" fill="white"/>
</svg>
