<svg width="17" height="16" viewBox="0 0 17 16" fill="none" xmlns="http://www.w3.org/2000/svg">
<g clip-path="url(#clip0_350_5577)">
<path d="M5.16791 15.9292C5.04929 15.909 4.93198 15.8818 4.81657 15.8478L2.90391 15.2478C2.21225 15.0446 1.60483 14.6232 1.1723 14.0465C0.739768 13.4698 0.505307 12.7687 0.503906 12.0478V3.99982C0.504599 3.45185 0.640374 2.9125 0.899212 2.42952C1.15805 1.94653 1.53197 1.53481 1.98787 1.23079C2.44377 0.926765 2.96758 0.739827 3.51296 0.686518C4.05833 0.633209 4.60843 0.715173 5.11457 0.925156L5.16791 0.949823V15.9292ZM14.2879 0.777823L14.2739 0.773156L12.4639 0.173156C12.2591 0.106743 12.0483 0.060523 11.8346 0.0351562V14.8765L13.2039 15.2712C13.5963 15.3667 14.0052 15.3718 14.3998 15.2862C14.7945 15.2006 15.1645 15.0265 15.4821 14.777C15.7996 14.5275 16.0563 14.2092 16.2329 13.846C16.4094 13.4828 16.5012 13.0843 16.5012 12.6805V3.91716C16.5002 3.22971 16.2871 2.55933 15.891 1.99749C15.4949 1.43564 14.9351 1.00971 14.2879 0.777823ZM10.5012 0.12649C10.5012 0.12649 6.60591 1.24182 6.50124 1.25316V15.9198C6.56791 15.9058 10.5012 14.8292 10.5012 14.8292V0.12649Z" fill="white"/>
</g>
<defs>
<clipPath id="clip0_350_5577">
<rect width="16" height="16" fill="white" transform="translate(0.5)"/>
</clipPath>
</defs>
</svg>
