<svg width="22" height="22" viewBox="0 0 22 22" fill="none" xmlns="http://www.w3.org/2000/svg">
<circle cx="11" cy="11" r="7.4" stroke="#3D3E43" stroke-width="1.2"/>
<path d="M10.5452 9.617C10.4348 9.617 10.3452 9.70654 10.3452 9.817V14.3148C10.3452 14.4252 10.4348 14.5148 10.5452 14.5148H11.4608C11.5712 14.5148 11.6608 14.4252 11.6608 14.3148V9.817C11.6608 9.70654 11.5712 9.617 11.4608 9.617H10.5452ZM10.3008 7.90144C10.3008 8.29255 10.5497 8.60366 11.003 8.60366C11.4563 8.60366 11.7052 8.29255 11.7052 7.90144C11.7052 7.51033 11.4563 7.19922 11.003 7.19922C10.5497 7.19922 10.3008 7.51033 10.3008 7.90144Z" fill="#3D3E43"/>
</svg>
